<svg xmlns="http://www.w3.org/2000/svg" width="20.721" height="20.617" viewBox="0 0 20.721 20.617">
  <g id="edit" transform="translate(0 -0.261)">
    <path id="Path_8" data-name="Path 8" d="M19.124,50.1a.516.516,0,0,0-.516.516V55.2a1.55,1.55,0,0,1-1.548,1.548H2.58A1.55,1.55,0,0,1,1.032,55.2V41.752A1.55,1.55,0,0,1,2.58,40.2H7.162a.516.516,0,1,0,0-1.032H2.58A2.583,2.583,0,0,0,0,41.752V55.2a2.583,2.583,0,0,0,2.58,2.58H17.06a2.583,2.583,0,0,0,2.58-2.58V50.618A.516.516,0,0,0,19.124,50.1Zm0,0" transform="translate(0 -36.903)"/>
    <path id="Path_9" data-name="Path 9" d="M122.043.941a2.322,2.322,0,0,0-3.284,0l-9.207,9.207a.516.516,0,0,0-.132.227l-1.211,4.371a.516.516,0,0,0,.635.635l4.371-1.211a.516.516,0,0,0,.227-.132l9.207-9.207a2.325,2.325,0,0,0,0-3.284Zm-11.367,9.542,7.535-7.535,2.43,2.43-7.535,7.535Zm-.485.974,1.941,1.942-2.686.744ZM121.919,4.1l-.547.547-2.43-2.43.548-.547a1.29,1.29,0,0,1,1.824,0l.606.606A1.292,1.292,0,0,1,121.919,4.1Zm0,0" transform="translate(-102.607)"/>
  </g>
</svg>
