<svg xmlns="http://www.w3.org/2000/svg" width="99" height="99" viewBox="0 0 99 99">
  <path id="user" d="M99,49.5A49.5,49.5,0,1,0,16.067,85.964l-.047.041,1.606,1.354c.1.088.218.16.322.247.853.707,1.737,1.379,2.637,2.029.292.211.583.421.88.626q1.442.994,2.956,1.886c.22.13.441.256.662.382,1.1.628,2.23,1.22,3.384,1.764.085.04.171.076.256.115A49.055,49.055,0,0,0,40.694,98.2l.331.059c1.3.225,2.621.4,3.955.526.162.014.324.023.488.038,1.328.11,2.671.18,4.032.18s2.678-.07,4-.176c.167-.014.335-.023.5-.038q1.985-.181,3.92-.517c.112-.02.225-.04.337-.061a49.052,49.052,0,0,0,11.8-3.7c.137-.063.275-.122.412-.187q1.666-.783,3.26-1.685.4-.224.79-.455c.968-.571,1.921-1.166,2.846-1.8.333-.227.659-.466.988-.7.79-.569,1.566-1.156,2.32-1.769.167-.135.347-.252.511-.391l1.647-1.375-.049-.041A49.372,49.372,0,0,0,99,49.5Zm-95.4,0A45.9,45.9,0,1,1,79.94,83.813a13.489,13.489,0,0,0-1.607-.967L63.092,75.227a3.99,3.99,0,0,1-2.218-3.587V66.317c.353-.436.725-.929,1.111-1.471a36.681,36.681,0,0,0,4.709-9.221,6.533,6.533,0,0,0,3.753-5.92V43.324a6.549,6.549,0,0,0-1.6-4.264v-8.4A14.518,14.518,0,0,0,65.461,20.1c-3.317-3.787-8.687-5.7-15.961-5.7s-12.643,1.917-15.961,5.7A14.518,14.518,0,0,0,30.15,30.658v8.4a6.559,6.559,0,0,0-1.6,4.264V49.7a6.548,6.548,0,0,0,2.412,5.078,33.822,33.822,0,0,0,5.567,11.5v5.209a4.015,4.015,0,0,1-2.092,3.524L20.209,82.778a13.008,13.008,0,0,0-1.354.857A45.79,45.79,0,0,1,3.6,49.5ZM76.426,86.638q-.945.686-1.921,1.323c-.3.194-.6.389-.9.578-.85.526-1.714,1.026-2.6,1.494-.194.1-.391.2-.587.3a45.866,45.866,0,0,1-6.278,2.657c-.076.025-.151.052-.229.077q-1.693.562-3.427.994l-.011,0c-1.166.288-2.347.527-3.535.724l-.1.018c-1.118.182-2.245.313-3.375.412-.2.018-.4.031-.6.045-1.118.085-2.241.139-3.37.139s-2.279-.056-3.411-.14c-.2-.014-.392-.027-.587-.045-1.141-.1-2.277-.236-3.4-.419l-.151-.027a45.729,45.729,0,0,1-7-1.748l-.212-.072q-1.7-.578-3.352-1.283l-.023-.011c-1.04-.448-2.061-.945-3.069-1.469-.131-.068-.265-.133-.394-.2-.92-.491-1.82-1.022-2.707-1.577q-.394-.248-.783-.5c-.817-.535-1.624-1.091-2.408-1.679-.081-.061-.158-.126-.239-.187l.173-.1,14.233-7.763a7.612,7.612,0,0,0,3.969-6.685l0-6.484-.414-.5a30.054,30.054,0,0,1-5.4-11.189l-.164-.713-.614-.4A2.983,2.983,0,0,1,32.153,49.7V43.321a2.94,2.94,0,0,1,1-2.2l.594-.536V30.557l-.016-.236a10.842,10.842,0,0,1,2.513-7.848C38.849,19.507,43.31,18,49.5,18c6.167,0,10.613,1.494,13.223,4.439a11.022,11.022,0,0,1,2.543,7.886L65.25,40.586l.594.536a2.943,2.943,0,0,1,1,2.2v6.381a3.006,3.006,0,0,1-2.126,2.835l-.895.275-.288.891a33.3,33.3,0,0,1-4.493,9.058c-.472.666-.931,1.256-1.325,1.708l-.446.509V71.64a7.568,7.568,0,0,0,4.208,6.808l15.241,7.619c.1.049.193.1.288.149C76.819,86.362,76.621,86.5,76.426,86.638Z" fill="#707070"/>
</svg>
