<svg xmlns="http://www.w3.org/2000/svg" width="28" height="28" viewBox="0 0 28 28"><g transform="translate(-251 -476)"><circle cx="14" cy="14" r="14" transform="translate(251 476)" fill="#0091f9"/><g transform="translate(256.344 481.643)"><path d="M72.258,300.079c2.58-1.575,3.612-.1,6.993.1,2.144.121,3.827-.528,4.691-1.843a4.906,4.906,0,0,0-.142-5.6c-1.371-1.906-4.554-2.717-7.675-.636a4.245,4.245,0,0,1,2.606-2.506,6.514,6.514,0,0,1,7.838,2.814c2.017,3.678.6,7.981-2.991,9.347C77.991,303.882,74.987,299.518,72.258,300.079Z" transform="translate(-72.258 -285.113)" fill="#fff"/><path d="M371.2,176.591a7.185,7.185,0,0,1,7.791,1.038c2.127,1.721,2.347,4.008,1.99,7.338,1.542-3.351,1.19-6.552-.97-8.768S373.239,173.863,371.2,176.591Z" transform="translate(-365.142 -172.77)" fill="#fff"/><path d="M536.969,88.194a5.778,5.778,0,0,1,5.857,1.137c1.333,1.26,2.052,2.508,2.231,5.456.614-2.814.443-4.9-1.384-6.569a5.26,5.26,0,0,0-6.7-.024Z" transform="translate(-527.549 -87)" fill="#fff"/><path d="M150.846,340.857a4.906,4.906,0,0,1,.142,5.6c-.865,1.315-2.547,1.964-4.691,1.843-2.708-.153-3.909-1.132-5.606-.707,1.631-.056,3.234,1.639,5.8,1.758,3.561.165,5.775-1.176,6.528-4.067a5.344,5.344,0,0,0-3.109-6.492c-2.209-.9-5.339-.5-6.737,1.432C146.292,338.141,149.475,338.952,150.846,340.857Z" transform="translate(-139.304 -333.235)" fill="#fff"/></g></g></svg>