<svg xmlns="http://www.w3.org/2000/svg" width="24.731" height="24.89" viewBox="0 0 24.731 24.89">
  <g id="sunny" transform="translate(-1.634)">
    <path id="Path_13" data-name="Path 13" d="M26.242,14.662,23.58,12.314l2.568-2.45A.363.363,0,0,0,26,9.251l-3.418-.986,1.263-3.308a.362.362,0,0,0-.059-.359.367.367,0,0,0-.342-.129l-3.513.566-.286-3.527a.364.364,0,0,0-.208-.3.368.368,0,0,0-.365.029l-2.93,2.01L14.36.182a.367.367,0,0,0-.634,0L11.683,3.7,8.15,1.66a.368.368,0,0,0-.366,0,.363.363,0,0,0-.184.315L7.591,5.513,4.044,5.221a.367.367,0,0,0-.331.155.362.362,0,0,0-.03.363L5.2,8.939,1.871,10.187a.363.363,0,0,0-.1.622l2.752,2.244L2.051,15.6a.363.363,0,0,0,.175.606l3.454.853L4.548,20.414a.362.362,0,0,0,.073.357.367.367,0,0,0,.347.116l3.488-.7L8.88,23.7a.364.364,0,0,0,.219.291.368.368,0,0,0,.363-.043l2.849-2.122,1.9,2.9a.366.366,0,0,0,.31.17h.014a.366.366,0,0,0,.31-.194L16.5,21.662l3.006,1.895a.368.368,0,0,0,.366.015.364.364,0,0,0,.2-.307l.147-3.536,3.533.43a.367.367,0,0,0,.337-.142.362.362,0,0,0,.044-.361L22.738,16.4l3.377-1.118a.363.363,0,0,0,.127-.617Z" fill="#ffa600"/>
    <ellipse id="Ellipse_2" data-name="Ellipse 2" cx="7.538" cy="7.533" rx="7.538" ry="7.533" transform="translate(6.381 4.849)" fill="#ffdb2d"/>
    <path id="Path_14" data-name="Path 14" d="M243.372,99.743q-.283,0-.561.021a7.532,7.532,0,0,1,0,15.023q.278.02.561.021a7.533,7.533,0,1,0,0-15.065Z" transform="translate(-229.452 -94.894)" fill="#ffca00"/>
  </g>
</svg>
