<svg id="surfist" xmlns="http://www.w3.org/2000/svg" width="24.236" height="35.21" viewBox="0 0 24.236 35.21">
  <path id="Path_5" data-name="Path 5" d="M101.8,147.543a15.134,15.134,0,0,0-3.627-.717.528.528,0,0,0-.081,1.053,14.643,14.643,0,0,1,2.213.338L82.455,158.788a15.11,15.11,0,0,0-3.161-.623,18.485,18.485,0,0,1,2.6-3.556,10.282,10.282,0,0,0,.514,3,.528.528,0,1,0,1-.332,9.373,9.373,0,0,1-.438-3.748,21.718,21.718,0,0,1,3.713-2.771,20.5,20.5,0,0,1,9.093-2.894.528.528,0,1,0-.066-1.054,19.364,19.364,0,0,0-1.939.221c-.093-.273-.191-.541-.292-.8a2.124,2.124,0,0,0-1.989-1.355H87.954a2.123,2.123,0,0,0-1.9,1.161c-1.843.9-3.674,3.687-4.079,6.984a19.631,19.631,0,0,0-4,5.382.528.528,0,0,0,.451.762,14.528,14.528,0,0,1,3.483.559,14.525,14.525,0,0,1-1.184,3.323.528.528,0,0,0,.451.762q.362.015.727.015a18.858,18.858,0,0,0,3-.247c.062.759.132,1.48.207,2.15a.528.528,0,0,0,.524.469.555.555,0,0,0,.06,0,.528.528,0,0,0,.466-.584c-.078-.692-.149-1.44-.213-2.229q.808-.174,1.612-.415c-.354,2.745-.5,4.919-.548,5.862h-.374c-.075-.377-.146-.785-.214-1.218a.528.528,0,1,0-1.044.163c.058.37.118.723.182,1.056h-.524a.528.528,0,0,0,0,1.056h2.479a.528.528,0,0,0,.526-.51c0-.029.1-2.879.63-6.774q1-.358,1.976-.816c.625,4.305.742,7.556.744,7.59a.528.528,0,0,0,.527.51H94.4a.528.528,0,1,0,0-1.056h-.524a73.65,73.65,0,0,0,.922-9.554,21.922,21.922,0,0,0,3.144-2.9,2.071,2.071,0,0,0,.574.085h.009a.387.387,0,0,0,.351-.537h0a.956.956,0,0,0-.255-.353,16.84,16.84,0,0,0,3.523-7.43A.528.528,0,0,0,101.8,147.543Zm-13.841-1.61H91.5a1.073,1.073,0,0,1,1.006.685c.078.2.154.4.227.614a22.334,22.334,0,0,0-6.579,2.618l-.173.1a20.1,20.1,0,0,1,.971-3.333A1.076,1.076,0,0,1,87.954,145.933Zm-2.535,1.893a21.9,21.9,0,0,0-.654,2.913q-.783.543-1.511,1.143A9.247,9.247,0,0,1,85.419,147.826Zm7.386,21H92.43c-.06-1.128-.254-4.014-.781-7.54q.483-.256.957-.537.565-.334,1.1-.7A66.677,66.677,0,0,1,92.805,168.828Zm-.737-8.986a20.292,20.292,0,0,1-10.048,2.925,15.1,15.1,0,0,0,.973-3.071l17.845-10.571a16.387,16.387,0,0,1-3.162,5.939,3.172,3.172,0,0,1-.367-.318.528.528,0,0,0-.789.048.541.541,0,0,0,.057.714,4.319,4.319,0,0,0,.407.358A21.46,21.46,0,0,1,92.069,159.843Z" transform="translate(-77.921 -134.675)"/>
  <path id="Path_6" data-name="Path 6" d="M254.066,69.218a.528.528,0,0,0,.528-.528V68a.528.528,0,1,0-1.056,0v.694A.528.528,0,0,0,254.066,69.218Z" transform="translate(-241.171 -62.717)"/>
  <path id="Path_7" data-name="Path 7" d="M223.068,69.218a.528.528,0,0,0,.528-.528V68a.528.528,0,1,0-1.056,0v.694A.528.528,0,0,0,223.068,69.218Z" transform="translate(-212.356 -62.717)"/>
  <path id="Path_8" data-name="Path 8" d="M161.584,6.879l.079,0a4.382,4.382,0,0,0,8.454,0l.079,0a1.716,1.716,0,1,0-.025-3.431,4.382,4.382,0,0,0-8.563,0,1.716,1.716,0,1,0-.025,3.431Zm4.306-5.823A3.345,3.345,0,0,1,169.12,3.6a4.97,4.97,0,0,1-4.068-1.336.528.528,0,0,0-.866.081,2.114,2.114,0,0,1-1.5,1.139A3.346,3.346,0,0,1,165.89,1.056ZM161.584,4.5a.654.654,0,0,1,.258.052.526.526,0,0,0,.2.042h.007a3.236,3.236,0,0,0,2.693-1.193,6.272,6.272,0,0,0,3.941,1.263,8.587,8.587,0,0,0,1.116-.075h.005a.526.526,0,0,0,.133-.037.66.66,0,1,1-.013,1.208.528.528,0,0,0-.741.41,3.325,3.325,0,0,1-6.589,0,.528.528,0,0,0-.741-.41.653.653,0,0,1-.27.059.659.659,0,1,1,0-1.319Z" transform="translate(-154.097)"/>
</svg>
