<svg xmlns="http://www.w3.org/2000/svg" width="136.516" height="131.944" viewBox="0 0 136.516 131.944"><g transform="translate(-256.344 -481.643)"><g transform="translate(256.344 481.642)"><g transform="translate(0 0)"><path d="M72.258,372.5c19.756-12.06,27.658-.728,53.548.766,16.417.927,29.3-4.043,35.921-14.113a37.567,37.567,0,0,0-1.087-42.881c-10.5-14.595-34.872-20.8-58.77-4.87a32.5,32.5,0,0,1,19.955-19.19,49.88,49.88,0,0,1,60.018,21.548c15.445,28.164,4.594,61.113-22.9,71.573C116.157,401.619,93.155,368.2,72.258,372.5Z" transform="translate(-72.258 -257.895)"/><path d="M371.2,190.248a55.018,55.018,0,0,1,59.658,7.948c16.287,13.178,17.972,30.691,15.238,56.19,11.808-25.66,9.112-50.171-7.428-67.14S386.813,169.359,371.2,190.248Z" transform="translate(-324.812 -160.986)"/><path d="M536.969,96.146a44.244,44.244,0,0,1,44.849,8.706c10.208,9.648,15.713,19.2,17.084,41.778,4.7-21.548,3.392-37.521-10.6-50.3a40.278,40.278,0,0,0-51.335-.184Z" transform="translate(-464.837 -86.999)"/><path d="M218.451,357.654a37.567,37.567,0,0,1,1.087,42.881c-6.624,10.069-19.5,15.039-35.921,14.112-20.736-1.172-29.932-8.668-42.927-5.414,12.489-.429,24.764,12.551,44.413,13.462,27.268,1.264,44.221-9,49.987-31.142a40.921,40.921,0,0,0-23.807-49.711c-16.915-6.892-40.883-3.829-51.588,10.965C183.58,336.857,207.953,343.067,218.451,357.654Z" transform="translate(-130.07 -299.286)"/></g></g></g></svg>